<mxfile host="app.diagrams.net" modified="2020-11-11T07:50:26.183Z" agent="5.0 (Windows NT 10.0; Win64; x64) AppleWebKit/537.36 (KHTML, like Gecko) Chrome/86.0.4240.183 Safari/537.36 Edg/86.0.622.63" etag="F1wCEPZPr3xL9L3QqcSH" version="13.9.3" type="github">
  <diagram id="OnlPPqkljVsdT2lRO_Jk" name="Page-1">
    <mxGraphModel dx="1240" dy="751" grid="1" gridSize="10" guides="1" tooltips="1" connect="1" arrows="1" fold="1" page="1" pageScale="1" pageWidth="1390" pageHeight="980" math="0" shadow="0">
      <root>
        <mxCell id="0" />
        <mxCell id="1" parent="0" />
        <mxCell id="EBwgcSGeeqRxeYOAfUs2-1" value="&lt;font style=&quot;font-size: 13px&quot;&gt;&lt;b&gt;customer&lt;/b&gt;&lt;/font&gt;" style="rounded=0;whiteSpace=wrap;html=1;" vertex="1" parent="1">
          <mxGeometry x="1120" y="660" width="120" height="40" as="geometry" />
        </mxCell>
        <mxCell id="EBwgcSGeeqRxeYOAfUs2-2" value="&lt;font style=&quot;font-size: 13px&quot;&gt;&lt;b&gt;Non menber&lt;/b&gt;&lt;/font&gt;" style="rounded=0;whiteSpace=wrap;html=1;" vertex="1" parent="1">
          <mxGeometry x="1250" y="760" width="120" height="40" as="geometry" />
        </mxCell>
        <mxCell id="EBwgcSGeeqRxeYOAfUs2-3" value="&lt;font style=&quot;font-size: 13px&quot;&gt;&lt;b&gt;Member&lt;/b&gt;&lt;/font&gt;" style="rounded=0;whiteSpace=wrap;html=1;" vertex="1" parent="1">
          <mxGeometry x="1010" y="760" width="120" height="40" as="geometry" />
        </mxCell>
        <mxCell id="EBwgcSGeeqRxeYOAfUs2-4" value="&lt;font style=&quot;font-size: 13px&quot;&gt;&lt;b&gt;Member&lt;/b&gt;&lt;/font&gt;" style="rounded=0;whiteSpace=wrap;html=1;" vertex="1" parent="1">
          <mxGeometry x="1040" y="880" width="120" height="40" as="geometry" />
        </mxCell>
        <mxCell id="EBwgcSGeeqRxeYOAfUs2-5" value="&lt;font style=&quot;font-size: 13px&quot;&gt;&lt;b&gt;Member&lt;/b&gt;&lt;/font&gt;" style="rounded=0;whiteSpace=wrap;html=1;" vertex="1" parent="1">
          <mxGeometry x="880" y="880" width="120" height="40" as="geometry" />
        </mxCell>
        <mxCell id="EBwgcSGeeqRxeYOAfUs2-6" value="&lt;font style=&quot;font-size: 13px&quot;&gt;&lt;b&gt;Member&lt;/b&gt;&lt;/font&gt;" style="rounded=0;whiteSpace=wrap;html=1;" vertex="1" parent="1">
          <mxGeometry x="1200" y="880" width="120" height="40" as="geometry" />
        </mxCell>
        <mxCell id="EBwgcSGeeqRxeYOAfUs2-7" value="" style="endArrow=none;html=1;entryX=0;entryY=0.5;entryDx=0;entryDy=0;" edge="1" parent="1" target="EBwgcSGeeqRxeYOAfUs2-3">
          <mxGeometry width="50" height="50" relative="1" as="geometry">
            <mxPoint x="940" y="780" as="sourcePoint" />
            <mxPoint x="1160" y="760" as="targetPoint" />
          </mxGeometry>
        </mxCell>
        <mxCell id="EBwgcSGeeqRxeYOAfUs2-8" value="" style="endArrow=none;html=1;exitX=0.5;exitY=0;exitDx=0;exitDy=0;" edge="1" parent="1" source="EBwgcSGeeqRxeYOAfUs2-5">
          <mxGeometry width="50" height="50" relative="1" as="geometry">
            <mxPoint x="1110" y="810" as="sourcePoint" />
            <mxPoint x="940" y="780" as="targetPoint" />
          </mxGeometry>
        </mxCell>
        <mxCell id="EBwgcSGeeqRxeYOAfUs2-9" value="" style="endArrow=none;html=1;entryX=0.5;entryY=1;entryDx=0;entryDy=0;exitX=0.25;exitY=0;exitDx=0;exitDy=0;" edge="1" parent="1" source="EBwgcSGeeqRxeYOAfUs2-4" target="EBwgcSGeeqRxeYOAfUs2-3">
          <mxGeometry width="50" height="50" relative="1" as="geometry">
            <mxPoint x="1110" y="810" as="sourcePoint" />
            <mxPoint x="1160" y="760" as="targetPoint" />
          </mxGeometry>
        </mxCell>
        <mxCell id="EBwgcSGeeqRxeYOAfUs2-10" value="" style="endArrow=none;html=1;entryX=1;entryY=0.5;entryDx=0;entryDy=0;" edge="1" parent="1" target="EBwgcSGeeqRxeYOAfUs2-3">
          <mxGeometry width="50" height="50" relative="1" as="geometry">
            <mxPoint x="1220" y="780" as="sourcePoint" />
            <mxPoint x="1160" y="760" as="targetPoint" />
          </mxGeometry>
        </mxCell>
        <mxCell id="EBwgcSGeeqRxeYOAfUs2-11" value="" style="endArrow=none;html=1;exitX=0.176;exitY=-0.033;exitDx=0;exitDy=0;exitPerimeter=0;" edge="1" parent="1" source="EBwgcSGeeqRxeYOAfUs2-6">
          <mxGeometry width="50" height="50" relative="1" as="geometry">
            <mxPoint x="1110" y="810" as="sourcePoint" />
            <mxPoint x="1220" y="780" as="targetPoint" />
          </mxGeometry>
        </mxCell>
        <mxCell id="EBwgcSGeeqRxeYOAfUs2-12" value="" style="endArrow=none;html=1;entryX=0.5;entryY=0;entryDx=0;entryDy=0;" edge="1" parent="1" target="EBwgcSGeeqRxeYOAfUs2-3">
          <mxGeometry width="50" height="50" relative="1" as="geometry">
            <mxPoint x="1070" y="740" as="sourcePoint" />
            <mxPoint x="1160" y="760" as="targetPoint" />
          </mxGeometry>
        </mxCell>
        <mxCell id="EBwgcSGeeqRxeYOAfUs2-13" value="" style="endArrow=none;html=1;entryX=0.5;entryY=0;entryDx=0;entryDy=0;" edge="1" parent="1" target="EBwgcSGeeqRxeYOAfUs2-2">
          <mxGeometry width="50" height="50" relative="1" as="geometry">
            <mxPoint x="1310" y="740" as="sourcePoint" />
            <mxPoint x="1080" y="770" as="targetPoint" />
          </mxGeometry>
        </mxCell>
        <mxCell id="EBwgcSGeeqRxeYOAfUs2-14" value="" style="endArrow=none;html=1;" edge="1" parent="1">
          <mxGeometry width="50" height="50" relative="1" as="geometry">
            <mxPoint x="1070" y="740" as="sourcePoint" />
            <mxPoint x="1310" y="740" as="targetPoint" />
          </mxGeometry>
        </mxCell>
        <mxCell id="EBwgcSGeeqRxeYOAfUs2-20" value="" style="endArrow=block;endSize=16;endFill=0;html=1;" edge="1" parent="1">
          <mxGeometry width="160" relative="1" as="geometry">
            <mxPoint x="1180" y="740" as="sourcePoint" />
            <mxPoint x="1179.58" y="700" as="targetPoint" />
          </mxGeometry>
        </mxCell>
        <mxCell id="EBwgcSGeeqRxeYOAfUs2-21" value="&lt;span style=&quot;font-size: 13px&quot;&gt;&lt;b&gt;Oder&lt;/b&gt;&lt;/span&gt;" style="rounded=0;whiteSpace=wrap;html=1;" vertex="1" parent="1">
          <mxGeometry x="1010" y="300" width="120" height="40" as="geometry" />
        </mxCell>
        <mxCell id="EBwgcSGeeqRxeYOAfUs2-24" value="" style="endArrow=none;html=1;exitX=0.5;exitY=0;exitDx=0;exitDy=0;" edge="1" parent="1">
          <mxGeometry width="50" height="50" relative="1" as="geometry">
            <mxPoint x="1179.17" y="660.0000000000002" as="sourcePoint" />
            <mxPoint x="1179" y="320" as="targetPoint" />
          </mxGeometry>
        </mxCell>
        <mxCell id="EBwgcSGeeqRxeYOAfUs2-25" value="&lt;span style=&quot;font-size: 13px&quot;&gt;&lt;b&gt;Check out&lt;/b&gt;&lt;/span&gt;" style="rounded=0;whiteSpace=wrap;html=1;" vertex="1" parent="1">
          <mxGeometry x="1010" y="210" width="120" height="40" as="geometry" />
        </mxCell>
        <mxCell id="EBwgcSGeeqRxeYOAfUs2-26" value="&lt;span style=&quot;font-size: 13px&quot;&gt;&lt;b&gt;Payment&lt;/b&gt;&lt;/span&gt;" style="rounded=0;whiteSpace=wrap;html=1;" vertex="1" parent="1">
          <mxGeometry x="1010" y="120" width="120" height="40" as="geometry" />
        </mxCell>
        <mxCell id="EBwgcSGeeqRxeYOAfUs2-27" value="&lt;font style=&quot;font-size: 13px&quot;&gt;&lt;b&gt;Bill&lt;/b&gt;&lt;/font&gt;" style="rounded=0;whiteSpace=wrap;html=1;" vertex="1" parent="1">
          <mxGeometry x="840" y="120" width="120" height="40" as="geometry" />
        </mxCell>
        <mxCell id="EBwgcSGeeqRxeYOAfUs2-28" value="" style="endArrow=none;html=1;" edge="1" parent="1">
          <mxGeometry width="50" height="50" relative="1" as="geometry">
            <mxPoint x="1130" y="320" as="sourcePoint" />
            <mxPoint x="1180" y="320" as="targetPoint" />
          </mxGeometry>
        </mxCell>
        <mxCell id="EBwgcSGeeqRxeYOAfUs2-29" value="" style="endArrow=none;html=1;exitX=0.5;exitY=0;exitDx=0;exitDy=0;entryX=0.5;entryY=1;entryDx=0;entryDy=0;" edge="1" parent="1" source="EBwgcSGeeqRxeYOAfUs2-21" target="EBwgcSGeeqRxeYOAfUs2-25">
          <mxGeometry width="50" height="50" relative="1" as="geometry">
            <mxPoint x="1060" y="290" as="sourcePoint" />
            <mxPoint x="1110" y="240" as="targetPoint" />
          </mxGeometry>
        </mxCell>
        <mxCell id="EBwgcSGeeqRxeYOAfUs2-30" value="" style="endArrow=none;html=1;exitX=0.5;exitY=0;exitDx=0;exitDy=0;entryX=0.5;entryY=1;entryDx=0;entryDy=0;" edge="1" parent="1">
          <mxGeometry width="50" height="50" relative="1" as="geometry">
            <mxPoint x="1069.5" y="210" as="sourcePoint" />
            <mxPoint x="1069.5" y="160" as="targetPoint" />
          </mxGeometry>
        </mxCell>
        <mxCell id="EBwgcSGeeqRxeYOAfUs2-31" value="" style="endArrow=none;html=1;" edge="1" parent="1">
          <mxGeometry width="50" height="50" relative="1" as="geometry">
            <mxPoint x="960" y="139.5" as="sourcePoint" />
            <mxPoint x="1010" y="139.5" as="targetPoint" />
          </mxGeometry>
        </mxCell>
        <mxCell id="EBwgcSGeeqRxeYOAfUs2-32" value="&lt;span style=&quot;font-size: 13px&quot;&gt;&lt;b&gt;Item&lt;/b&gt;&lt;/span&gt;" style="rounded=0;whiteSpace=wrap;html=1;" vertex="1" parent="1">
          <mxGeometry x="690" y="300" width="120" height="40" as="geometry" />
        </mxCell>
        <mxCell id="EBwgcSGeeqRxeYOAfUs2-33" value="&lt;span style=&quot;font-size: 13px&quot;&gt;&lt;b&gt;Item Detail&lt;/b&gt;&lt;/span&gt;" style="rounded=0;whiteSpace=wrap;html=1;" vertex="1" parent="1">
          <mxGeometry x="690" y="180" width="120" height="40" as="geometry" />
        </mxCell>
        <mxCell id="EBwgcSGeeqRxeYOAfUs2-34" value="&lt;span style=&quot;font-size: 13px&quot;&gt;&lt;b&gt;Item model&lt;/b&gt;&lt;/span&gt;" style="rounded=0;whiteSpace=wrap;html=1;" vertex="1" parent="1">
          <mxGeometry x="420" y="300" width="120" height="40" as="geometry" />
        </mxCell>
        <mxCell id="EBwgcSGeeqRxeYOAfUs2-35" value="&lt;span style=&quot;font-size: 13px&quot;&gt;&lt;b&gt;Category&lt;/b&gt;&lt;/span&gt;" style="rounded=0;whiteSpace=wrap;html=1;" vertex="1" parent="1">
          <mxGeometry x="420" y="210" width="120" height="40" as="geometry" />
        </mxCell>
        <mxCell id="EBwgcSGeeqRxeYOAfUs2-36" value="" style="endArrow=diamondThin;endFill=1;endSize=24;html=1;exitX=0.5;exitY=1;exitDx=0;exitDy=0;" edge="1" parent="1" source="EBwgcSGeeqRxeYOAfUs2-33" target="EBwgcSGeeqRxeYOAfUs2-32">
          <mxGeometry width="160" relative="1" as="geometry">
            <mxPoint x="820" y="420" as="sourcePoint" />
            <mxPoint x="980" y="420" as="targetPoint" />
          </mxGeometry>
        </mxCell>
        <mxCell id="EBwgcSGeeqRxeYOAfUs2-37" value="" style="endArrow=none;html=1;exitX=0.5;exitY=0;exitDx=0;exitDy=0;entryX=0.5;entryY=1;entryDx=0;entryDy=0;" edge="1" parent="1">
          <mxGeometry width="50" height="50" relative="1" as="geometry">
            <mxPoint x="479.28999999999996" y="300" as="sourcePoint" />
            <mxPoint x="479.28999999999996" y="250" as="targetPoint" />
          </mxGeometry>
        </mxCell>
        <mxCell id="EBwgcSGeeqRxeYOAfUs2-38" value="" style="endArrow=none;html=1;entryX=1;entryY=0.5;entryDx=0;entryDy=0;" edge="1" parent="1" target="EBwgcSGeeqRxeYOAfUs2-34">
          <mxGeometry width="50" height="50" relative="1" as="geometry">
            <mxPoint x="690" y="320" as="sourcePoint" />
            <mxPoint x="1090" y="270" as="targetPoint" />
            <Array as="points" />
          </mxGeometry>
        </mxCell>
        <mxCell id="EBwgcSGeeqRxeYOAfUs2-39" value="" style="endArrow=none;html=1;exitX=1;exitY=0.5;exitDx=0;exitDy=0;entryX=0;entryY=0.5;entryDx=0;entryDy=0;" edge="1" parent="1" source="EBwgcSGeeqRxeYOAfUs2-32" target="EBwgcSGeeqRxeYOAfUs2-21">
          <mxGeometry width="50" height="50" relative="1" as="geometry">
            <mxPoint x="1100" y="330" as="sourcePoint" />
            <mxPoint x="1100" y="280" as="targetPoint" />
          </mxGeometry>
        </mxCell>
        <mxCell id="EBwgcSGeeqRxeYOAfUs2-40" value="&lt;span style=&quot;font-size: 13px&quot;&gt;&lt;b&gt;Category&lt;/b&gt;&lt;/span&gt;" style="rounded=0;whiteSpace=wrap;html=1;" vertex="1" parent="1">
          <mxGeometry x="210" y="210" width="120" height="40" as="geometry" />
        </mxCell>
        <mxCell id="EBwgcSGeeqRxeYOAfUs2-41" value="&lt;span style=&quot;font-size: 13px&quot;&gt;&lt;b&gt;Category&lt;/b&gt;&lt;/span&gt;" style="rounded=0;whiteSpace=wrap;html=1;" vertex="1" parent="1">
          <mxGeometry x="210" y="300" width="120" height="40" as="geometry" />
        </mxCell>
      </root>
    </mxGraphModel>
  </diagram>
</mxfile>
